<?xml version="1.0" encoding="UTF-8"?>
<svg id="Capa_1" data-name="Capa 1" xmlns="http://www.w3.org/2000/svg" viewBox="0 0 1123.29 352.61">
  <defs>
    <style>
      .cls-1 {
        fill: #95b8ac;
      }

      .cls-1, .cls-2 {
        stroke-width: 0px;
      }

      .cls-2 {
        fill: #15433a;
      }
    </style>
  </defs>
  <path class="cls-2" d="M288.71,298.53c-1.22-1.22-2.07-3.65-2.07-5.35,0-9.36,12.52-42.53,29.16-77.04l9.96-20.78-3.89-5.47c-6.56-9.23-4.98-18.47,2.92-17.74,3.04.24,4.01,1.09,4.98,4.37.61,2.07,1.46,3.89,1.94,3.89s4.37-6.44,8.51-14.22c11.3-21.51,19.2-35.85,36.7-66.35,16.04-28.07,17.38-29.77,23.57-28.56,1.09.24,2.67,1.82,3.28,3.65.97,2.79-.24,5.47-9.84,21.87-20.9,35.24-50.18,89.31-50.18,92.47,0,2.67,3.04,3.52,15.92,4.13,10.21.61,13.24.24,23.69-2.67,22.97-6.44,41.68-15.55,68.41-33.29,17.01-11.3,46.17-39.37,55.41-53.47,12.03-18.47,16.53-30.26,16.53-43.5,0-39.98-69.02-58.81-135.12-36.82-37.18,12.39-71.81,37.06-82.63,58.93-3.4,7.05-4.74,8.63-7.41,8.87-3.4.36-7.05-3.28-7.05-7.17,0-4.13,7.66-16.89,14.82-24.79,25.03-27.22,65.62-48.24,107.29-55.29,21.87-3.77,51.28-3.04,68.9,1.7,24.18,6.44,42.41,18.96,50.31,34.39,3.28,6.56,3.52,7.9,3.52,21.02-.12,12.88-.36,14.82-4.01,23.69-8.51,21.39-29.89,48.36-55.04,69.26-21.99,18.47-56.62,38.28-80.68,46.17-20.9,6.8-41.07,8.26-53.95,3.65-2.92-.97-5.59-1.7-5.83-1.46-.97.97-12.03,24.42-19.44,40.95-9.11,20.41-15.43,38.15-17.25,48.12-.73,3.89-2.07,7.41-2.92,8.02-2.55,1.58-6.44,1.09-8.51-1.22v.04Z"/>
  <path class="cls-2" d="M1120.01,151.92c-5.23-6.56-12.4-8.14-22.24-4.74l-5.59,1.82-4.25-3.65c-3.53-3.16-5.23-3.77-10.33-3.77-7.9,0-13.36,2.43-17.13,7.41-8.99,12.03-7.17,29.89,4.74,45.81,2.07,2.67,3.89,3.89,6.32,3.89,6.68,0,8.26-5.83,3.16-11.91-4.5-5.47-7.9-13.61-7.9-19.44,0-9.59,5.71-16.03,11.79-13.24,3.52,1.58,4.62,4.86,4.13,11.91-.73,12.27,9.11,13.12,13.12,1.09,3.15-9.36,12.15-13.37,14.82-6.44,4.39,11.64-13.79,35.62-37.33,52.34-5.71,4.06-11.74,7.68-17.84,10.6-25.64,12.28-44.47,17.02-62.82,15.8-17.01-1.09-28.67-4.62-38.76-11.3-1.21-.85.85-3.52,8.51-11.3,12.15-12.15,17.86-21.87,18.83-32.2.73-8.63-1.58-14.22-8.02-18.47-8.39-5.59-24.55-1.46-33.66,8.63-10.08,11.3-13.97,29.16-9.11,41.92l2.43,6.44-2.55,1.7c-11.05,7.17-30.98,10.08-39.73,5.71-4.86-2.31-8.51-8.63-8.51-14.58s4.37-17.74,9.23-25.4c6.32-9.96,4.98-14.7-4.01-13.24-10.33,1.7-17.5,2.19-20.54,1.46-3.04-.85-3.16-1.09-2.43-6.68,1.09-8.14.24-9.84-5.35-9.84-6.08,0-8.51,3.04-9.6,11.79-.73,5.58-2.19,9.23-7.29,17.25-19.19,30.86-41.43,46.66-45.32,32.32-.97-4.01,0-9.48,3.65-18.35,2.31-5.59,2.31-6.56.73-8.87-1.22-1.58-3.16-2.55-5.47-2.55-2.91,0-4.25,1.09-7.41,5.83-5.83,8.51-19.08,21.27-26.61,25.64-8.62,4.86-15.91,5.23-18.83.73-1.58-2.31-1.83-4.74-1.34-9.72,1.71-16.77,20.78-37.55,37.43-40.83,8.38-1.7,12.15-.36,16.28,6.2,4.86,7.78,11.54,6.32,11.54-2.67,0-5.84-5.35-12.15-12.88-15.07-6.2-2.31-18.35-1.7-25.76,1.46-10.81,4.5-23.69,15.55-31.59,27.22-7.29,10.81-25.03,25.51-41.19,34.14-8.38,4.62-10.57,5.22-19.44,5.71-8.5.48-10.69.12-15.55-2.19-8.75-4.25-12.52-13.36-10.33-26,3.4-20.54,22.35-42.29,37.3-42.53,9.96-.24,13.24,8.38,6.44,16.89-4.13,5.1-4.49,8.02-1.7,10.81,3.04,3.16,6.68,2.31,11.42-2.79,10.82-11.42,8.63-29.16-4.37-35.48-11.06-5.23-25.16-1.46-39.01,10.69-9.48,8.26-15.92,17.74-20.54,29.89-2.91,8.01-4.49,10.08-17.98,23.69-11.79,12.02-16.53,15.79-24.06,19.68-10.09,5.35-13.73,5.84-19.81,2.92-5.83-2.67-7.9-8.01-7.9-19.68,0-18.72,10.93-50.92,33.05-97.7,8.74-18.23,6.44-17.26,35.72-16.53,15.31.24,20.05,0,21.51-1.34,3.15-2.55,2.55-7.05-1.22-9.48-2.79-1.83-6.07-2.19-21.87-2.19-10.21,0-18.59-.12-18.59-.36s4.26-8.87,9.36-19.08c8.26-16.77,9.12-19.08,7.9-21.87-1.7-3.64-7.42-4.13-10.21-.85-.97,1.09-6.92,11.78-13,23.69-8.02,15.43-11.79,21.51-13.37,21.51-2.56,0-27.34,6.19-36.7,9.11-3.77,1.21-8.14,3.15-9.72,4.37-2.43,1.82-2.67,2.55-1.7,5.59,1.7,4.86,5.58,4.86,19.68.36,6.56-2.07,14.58-4.14,17.74-4.5l5.95-.73-3.77,7.29c-6.81,13.61-18.47,42.05-24.55,59.91-5.83,17.13-6.2,17.86-13.61,25.27-10.08,10.33-25.27,21.75-34.87,26.25-17.25,8.02-33.05,2.8-36.45-12.15-1.58-6.92-.61-9.23,3.4-8.14,6.68,1.94,18.83.85,25.88-2.43,17.74-7.9,26.73-26,18.47-37.18-4.98-6.56-8.39-8.02-18.35-7.9-11.43.24-16.77,2.43-24.67,9.84-11.67,10.93-18.11,25.15-18.11,40.46,0,14.34,5.11,23.82,15.92,29.77,16.41,8.87,39.01,3.28,61.73-15.19,4.98-4.01,9.47-7.29,9.96-7.29.6,0,1.09,2.43,1.09,5.22,0,12.15,6.2,23.57,15.07,27.7l.05.06c3.89,1.82,6.93,2.3,13.49,1.94,12.63-.72,24.3-7.16,42.89-23.69,4.86-4.37,8.87-7.65,9.11-7.41.12.24,1.83,3.64,3.77,7.53,11.91,23.94,44.72,23.58,77.16-.97,4.86-3.77,8.99-6.68,9.11-6.44.24.24.97,2.79,1.82,5.83,1.94,6.8,7.78,12.63,14.58,14.7,4.49,1.33,6.44,1.33,13.12-.49,7.66-1.95,15.92-6.68,22.48-12.76,3.77-3.4,5.35-2.91,6.44,2.19.97,4.49,7.9,10.57,13.12,11.54,5.47,1.09,13.49-1.21,20.54-5.71,10.7-6.68,26.86-26.12,36.58-43.5,1.58-2.92,2.55-3.65,4.25-3.04,1.09.61,4.86,1.58,8.14,2.19,3.4.73,6.2,1.34,6.32,1.46.24.12-.85,3.15-2.31,6.8-5.84,15.06-2.31,31.47,8.38,39.61,11.78,8.75,33.41,7.66,54.07-2.79l5.83-2.92,7.9,5.35c31.59,21.63,86.27,14.83,131.84-16.28.12-.09.25-.17.38-.27,12.5-8.73,30.41-26.81,35.83-36.31,7.66-13.49,9.12-27.58,3.65-34.51ZM497.35,175.69c10.09-8.02,23.33-5.47,20.9,4.13-1.09,4.5-6.8,10.45-12.27,12.88h0c-6.32,2.92-19.81,3.16-20.9.37-.97-2.43,6.19-12.52,12.27-17.38ZM947.43,213.48l-3.4,2.31-1.22-3.16c-1.82-4.74-1.46-15.92.73-21.02,3.28-7.9,12.64-16.04,18.59-16.04,3.41,0,6.2,3.28,6.2,7.41,0,5.1-5.35,14.94-11.91,21.99-3.16,3.29-7.17,7.17-8.99,8.51Z"/>
  <g>
    <path class="cls-2" d="M179.73,203.63c-2.53-.81-6.78-1.42-9.61-1.42l-4.96-.1,2.22-2.22c1.82-1.82,3.34-2.32,7.29-2.22,5.66.2,12.65,3.24,12.65,5.46,0,1.92-2.02,2.12-7.59.51h0Z"/>
    <path class="cls-2" d="M178.42,188.14c-6.07-3.75-4.35-8.7,1.92-5.36,4.05,2.22,6.68,2.02,9.72-.61,2.12-1.92,3.85-.91,3.85,2.22,0,5.16-9.51,7.49-15.48,3.75h0Z"/>
    <path class="cls-2" d="M156.45,59.71c-3.64-1.82-5.06-4.76-3.24-6.58.61-.61,2.02-.41,4.05.61,5.16,2.63,8.2,2.02,12.24-2.32,2.02-2.12,4.25-3.64,4.96-3.44,2.32.81,1.22,5.36-2.12,9-4.15,4.56-10.32,5.56-15.89,2.73h0Z"/>
    <g>
      <path class="cls-2" d="M129.43,350.88c-35.11-9.21-74.39-28.33-96.65-46.96-13.06-10.93-24.09-26.52-29.25-41.49-9.11-26.21-.1-53.13,21.26-63.66,6.17-3.04,7.49-3.24,16.8-3.24s10.83.3,16.09,2.83c8.3,3.85,14.37,9,19.02,16.29,2.22,3.44,4.25,6.17,4.66,6.17s2.83-1.32,5.46-3.04l4.76-3.04-.51-9.11c-.81-11.74,1.22-21.56,6.68-32.69,6.98-14.07,18.12-23.58,34.61-29.55,8.1-2.93,8.5-3.34,11.84-8.8,3.95-6.48,15.58-19.13,18.32-20.04,2.93-.91,5.77,1.12,7.09,5.16l1.22,3.64,4.46-4.35c2.53-2.53,4.46-5.26,4.46-6.58,0-3.24,1.92-3.54,15.08-2.83,11.54.71,11.94.61,19.23-2.43,10.02-4.25,14.48-7.49,18.72-13.66,5.16-7.59,8.6-22.47,5.46-23.38-.71-.2-3.24-.91-5.66-1.52-6.17-1.72-12.34-8.1-12.34-12.75,0-1.92-.3-3.54-.71-3.54-5.97-.3-16.39-2.43-19.73-4.15-6.17-3.04-8.4-5.46-13.97-14.68-8.3-13.56-18.52-21.66-31.28-24.7-20.55-4.86-52.52,11.03-76.11,37.65-18.12,20.55-25.7,38.56-23.28,55.15,1.92,12.75,7.39,21.46,16.5,26.01,15.18,7.59,30.97-1.62,37.45-21.96,2.32-7.49,2.73-21.96.81-34.91-1.32-8.6-.71-11.34,2.63-11.34,2.02,0,2.53,1.52,4.05,12.45,3.44,25.6.3,41.79-10.32,54.25-4.86,5.66-10.22,8.9-17.71,10.83-10.83,2.73-19.94-.3-29.65-9.92-3.24-3.34-6.07-5.77-6.27-5.56-.2.2-1.92,6.48-3.85,13.97-3.54,13.66-6.68,32.89-6.68,40.48,0,6.88-3.04,10.12-6.07,6.48-3.04-3.64,2.53-40.38,9.41-61.53,2.93-8.8,3.44-11.54,2.63-14.17-1.42-4.86-1.12-16.6.61-23.68,2.83-12.14,10.22-25.4,21.16-38.15,6.58-7.59,23.89-23.18,30.47-27.43,2.83-1.82,7.29-4.66,9.92-6.38,6.07-3.85,19.23-8.6,28.74-10.32,20.34-3.75,40.79,7.69,53.44,29.75,4.56,8,5.56,9,10.63,11.54,4.96,2.43,6.88,2.73,19.23,3.04,15.08.51,18.22,1.42,20.75,6.27.91,1.72,2.12,7.69,2.73,13.46,1.02,8.9.91,11.34-.61,18.12-2.93,13.06-10.63,22.87-22.47,28.74-7.09,3.44-20.45,5.77-28.64,4.96-5.66-.61-6.38-.51-5.87.91.41.91.91,7.59,1.32,14.88.71,12.45.81,13.26,3.14,14.88,12.34,8.5,18.02,15.58,21.16,26.41,2.53,8.6,3.95,10.73,11.54,16.8,8.4,6.68,8.7,8.1,4.46,19.94-4.76,13.16-10.83,19.73-22.26,24.09-4.76,1.72-7.69,2.02-17.11,1.92-6.27-.1-11.84.1-12.45.51-1.72,1.02-4.25-.51-4.25-2.53,0-3.64,5.36-5.26,15.18-4.46,15.38,1.22,26.31-3.95,31.77-14.88,3.04-6.07,3.34-9.11,1.02-11.03-1.12-.91-1.42-2.43-1.12-4.86.3-3.24-.1-4.15-4.76-8.7-4.25-4.15-5.56-6.38-7.39-12.14-3.75-11.74-7.8-17.51-16.5-23.38l-7.59-5.06-.61-13.16c-.41-7.19-.71-13.66-.81-14.27-.2-2.63-2.93-1.22-6.17,3.34l-3.34,4.66,1.32,7.09c1.22,6.17,1.22,7.19-.3,8.6-2.53,2.53-4.35.3-5.66-7.09-1.82-9.41-4.35-17.92-5.26-17.92-1.82,0-12.75,14.88-16.7,22.67-4.35,8.7-7.29,10.83-9.11,6.68-.91-2.02-1.02-2.02-8,1.42-14.07,6.78-23.89,17.61-28.94,31.98-2.02,5.56-2.32,8.6-2.43,20.45v13.87l-5.06,3.24c-8.8,5.56-9.72,6.68-9,12.04.51,3.64.2,4.96-1.12,6.07-2.73,2.22-4.56.1-6.98-8.2-2.63-9.11-5.26-13.46-11.34-19.13-16.6-15.28-40.08-11.94-51.41,7.39-5.97,10.22-7.19,26.62-2.83,39.17,9.11,26.21,29.86,45.95,67.51,64.27,14.68,7.09,36.23,15.68,48.27,19.13,3.24.91,6.48,1.92,7.29,2.22.91.41,2.93-1.82,6.17-6.88,3.04-4.76,8.9-11.34,16.5-18.52,21.36-20.14,28.04-27.23,32.38-33.91,5.06-7.8,9.92-19.73,10.83-26.82,1.22-10.12,1.62-11.44,3.24-12.04,7.19-2.83,5.06,18.22-3.64,35.62-5.66,11.24-13.97,21.05-29.25,34.52-14.37,12.65-19.73,18.62-26.11,29.15-2.32,3.75-4.76,6.98-5.56,7.09-.81.1-4.76-.61-8.7-1.72h-.05Z"/>
      <path class="cls-1" d="M133.79,280.37h-13.43v-13.43c0-2.01-1.63-3.64-3.64-3.64h-3c-2.01,0-3.64,1.63-3.64,3.64v13.43h-13.43c-2.01,0-3.64,1.63-3.64,3.64v3c0,2.01,1.63,3.64,3.64,3.64h13.43v13.43c0,2.01,1.63,3.64,3.64,3.64h3c2.01,0,3.64-1.63,3.64-3.64v-13.43h13.43c2.01,0,3.64-1.63,3.64-3.64v-3c0-2.01-1.63-3.64-3.64-3.64Z"/>
    </g>
  </g>
  <path class="cls-1" d="M1116.36,186.43c-5.42,9.5-23.33,27.58-35.83,36.31l-7.21-9.74c23.54-16.72,41.72-40.7,37.33-52.34-2.67-6.93-11.67-2.92-14.82,6.44-4.01,12.03-13.85,11.18-13.12-1.09.49-7.05-.61-10.33-4.13-11.91-6.08-2.79-11.79,3.65-11.79,13.24,0,5.83,3.4,13.97,7.9,19.44,5.1,6.08,3.52,11.91-3.16,11.91-2.43,0-4.25-1.22-6.32-3.89-11.91-15.92-13.73-33.78-4.74-45.81,3.77-4.98,9.23-7.41,17.13-7.41,5.1,0,6.8.61,10.33,3.77l4.25,3.65,5.59-1.82c9.84-3.4,17.01-1.82,22.24,4.74,5.47,6.93,4.01,21.02-3.65,34.51Z"/>
  <g>
    <g>
      <path class="cls-1" d="M461.99,327.21c-1.82-2.92-10.09-23.21-10.09-24.91,0-.85.97-1.58,2.31-1.58,1.7,0,3.16,2.31,5.83,8.87,1.94,4.74,4.13,8.51,4.74,8.26.61-.36,2.55-3.77,4.25-7.66,3.77-8.38,4.86-9.72,6.93-8.38,1.34.73.49,3.77-3.77,13.61-5.1,12.27-7.9,15.31-10.21,11.79h.01Z"/>
      <path class="cls-1" d="M509.98,327.7l-9.48-.36v-25.04l6.44-.85c11.54-1.34,13-1.09,13,2.31,0,2.92-.36,3.04-6.68,3.04s-6.68.12-6.68,3.04.36,3.04,6.08,3.04c4.62,0,6.08.49,6.08,1.82s-1.46,1.82-6.08,1.82c-5.95,0-6.08.12-6.08,3.65v3.65h7.29c5.59,0,7.29.36,7.29,1.7,0,2.43-.61,2.55-11.18,2.19h0Z"/>
      <path class="cls-1" d="M632.95,315.3v-13.37h8.26c7.17,0,8.75.36,10.94,2.79,3.4,3.52,3.4,8.14.24,12.15-2.43,3.04-2.43,3.4-.49,6.32,1.58,2.55,1.7,3.52.61,4.62-1.22,1.09-2.43.49-5.47-3.28-4.86-5.71-8.38-5.71-8.99.24-.24,2.92-.97,3.89-2.79,3.89-2.19,0-2.31-.97-2.31-13.37h0ZM647.29,314.21c.97-.49,1.46-2.31,1.22-3.89-.24-2.19-1.34-3.04-4.62-3.65-2.31-.49-4.62-.61-5.1-.36-1.22.73-1.34,7.05-.12,8.14,1.09,1.22,6.68.97,8.63-.24h-.01Z"/>
      <path class="cls-1" d="M681.19,327.82c-.49-.36-.85-6.32-.85-13.24,0-9.48.36-12.52,1.7-13,.97-.36,2.07-.36,2.43,0,.36.49.73,6.68.73,13.97,0,10.09-.36,13.12-1.58,13.12-.97,0-2.07-.36-2.43-.85Z"/>
      <path class="cls-1" d="M711.94,314.57c0-11.06.36-13.85,1.7-13.85,1.82,0,6.93,5.35,11.67,12.52,1.7,2.43,3.4,4.5,4.01,4.5.49,0,.85-3.52.85-7.78,0-7.29.97-9.23,4.37-9.23.24,0,.49,6.32.49,13.97,0,13-.12,13.97-2.31,13.97-1.58,0-4.25-2.67-7.53-7.29-6.44-9.23-8.38-9.48-8.38-.73,0,5.47-.36,6.56-2.43,7.17-2.31.61-2.43,0-2.43-13.24h0Z"/>
      <path class="cls-1" d="M760.3,327.82c-1.7-.49-1.22-2.31,3.52-12.88,6.2-14.22,6.93-15.31,9.6-13.61,1.34.97,12.64,23.69,12.64,25.76,0,.12-1.34.36-2.92.36-1.94,0-3.28-.85-3.77-2.43-.61-2.07-1.82-2.43-7.41-2.43-3.65,0-6.56.49-6.56.97,0,2.07-3.16,4.62-5.1,4.25h0ZM774.76,313.85c-1.94-4.86-3.16-4.74-5.22.12l-1.58,3.77h8.38l-1.58-3.89h0Z"/>
      <path class="cls-1" d="M810,327.94c-.49-.49-.85-6.56-.85-13.49,0-10.09.36-12.76,1.82-13.24,3.4-1.34,15.31.85,17.74,3.28,3.04,3.04,3.04,9.72-.12,12.64l-2.43,2.19,2.43,4.13c3.04,5.1,3.04,5.22,0,5.22-1.46,0-3.52-1.7-5.1-4.25-2.19-3.28-3.52-4.25-5.83-4.01-2.43.36-3.04.97-3.04,4.01,0,3.52-2.67,5.47-4.62,3.52h0ZM824.82,313.6c1.7-2.07-.12-6.8-2.67-6.8-.85,0-2.67-.36-4.13-.73-2.55-.73-2.79-.36-2.79,4.25,0,4.86.12,4.98,4.13,4.98,2.19,0,4.74-.73,5.47-1.7h0Z"/>
      <path class="cls-1" d="M857.26,327.7c-1.22-1.09-.85-25.52.36-26.25.61-.49,1.94-.36,3.04,0,1.58.61,1.94,2.92,1.94,13.24,0,11.3-.24,12.52-2.31,13.12-1.34.36-2.67.24-3.04-.12h.01Z"/>
      <path class="cls-1" d="M909.27,327.45c-1.46-.61-2.92-1.82-3.28-2.92-.61-1.46-2.43-1.94-7.41-1.94-5.47,0-6.56.36-7.17,2.43-.36,1.46-1.7,2.43-3.28,2.43-3.16,0-3.16-.12,3.28-14.95,4.13-9.6,4.86-10.69,7.66-10.33,2.55.36,3.77,2.19,8.26,12.39,2.79,6.56,5.1,12.39,4.86,12.88s-1.46.49-2.92,0h0ZM902.1,315.66c-.49-1.22-1.22-3.16-1.46-4.25-.97-3.28-2.43-2.67-3.89,1.58-.73,2.19-1.34,4.13-1.34,4.25,0,.24,1.7.49,3.77.49,3.16,0,3.65-.36,2.92-2.07h0Z"/>
      <path class="cls-1" d="M551.54,317.25v-10.33l-3.89-.36c-3.04-.24-4.01-.97-4.01-2.79,0-2.19.97-2.43,8.99-2.79,10.81-.49,12.27,0,11.42,3.28-.49,1.82-1.58,2.55-4.13,2.55h-3.52v10.33c0,9.48-.24,10.33-2.43,10.33s-2.43-.85-2.43-10.21h0Z"/>
      <path class="cls-1" d="M587.99,314.69v-12.76h7.78c4.25,0,8.63-.36,9.72-.73,1.46-.49,1.94,0,1.94,1.82,0,2.31-.73,2.55-6.68,2.55-6.56,0-6.68,0-6.68,3.65s.12,3.65,6.08,3.65c4.62,0,6.08.49,6.08,1.82s-1.46,1.82-6.08,1.82c-5.95,0-6.08.12-6.08,3.65v3.65h7.41c5.35,0,7.29.36,6.93,1.58-.36.97-3.89,1.58-10.45,1.82l-9.96.36v-12.88h0Z"/>
      <path class="cls-1" d="M386.29,315.3c0-2.31.73-2.43,13.49-2.43s13.37.24,13,2.19c-.36,1.82-2.19,2.07-13.49,2.43-12.39.36-13,.24-13-2.19Z"/>
      <path class="cls-1" d="M953.02,315.91c-.49-1.09-.61-2.19-.36-2.43.24-.24,6.2-.61,13.24-.73,11.91-.36,12.76-.24,12.76,2.07,0,2.07-1.09,2.31-12.52,2.67-10.45.24-12.52,0-13.12-1.58Z"/>
    </g>
    <text/>
    <g>
      <path class="cls-1" d="M452.22,301.81h8l5.33,20.42,5.51-20.42h6.54l-8.51,26.92-8.54-.14-8.33-26.78Z"/>
      <path class="cls-1" d="M500.63,301.81h21.09v4.59h-13.47v6.22h10.47v4.59h-10.47v6.59h13.47v4.79h-21.09v-26.78Z"/>
      <path class="cls-1" d="M542.54,301.81h21.62v5.02h-7.09v21.76h-7.62v-21.76h-6.91v-5.02Z"/>
      <path class="cls-1" d="M588.25,301.81h21.09v4.59h-13.47v6.22h10.47v4.59h-10.47v6.59h13.47v4.79h-21.09v-26.78Z"/>
      <path class="cls-1" d="M632.6,301.81h10.9c2.12,0,3.74.08,4.87.23,1.13.15,2.26.56,3.42,1.22,1.15.66,2.05,1.56,2.71,2.71s.98,2.43.98,3.86c0,3.35-1.63,5.7-4.88,7.06l6.38,11.71h-8.3l-4.64-10.6h-3.81v10.6h-7.62v-26.78ZM640.22,306.15v7.51h3.35c2.98,0,4.47-1.29,4.47-3.87,0-.89-.22-1.62-.66-2.19-.44-.57-.95-.96-1.54-1.16-.58-.2-1.44-.3-2.58-.3h-3.05Z"/>
      <path class="cls-1" d="M679.05,301.81h7.62v26.78h-7.62v-26.78Z"/>
      <path class="cls-1" d="M712.47,301.81h8.46l8.92,16.64v-16.64h5.89v26.78h-6.81l-10.57-19.39v19.39h-5.9v-26.78Z"/>
      <path class="cls-1" d="M768.54,301.81h7.67l9.91,26.78h-7.8l-1.73-5.53h-9.77l-1.7,5.53h-7l10.42-26.78ZM775.16,318.47l-3.5-10.97-3.36,10.97h6.87Z"/>
      <path class="cls-1" d="M809.13,301.81h10.9c2.12,0,3.74.08,4.87.23,1.13.15,2.26.56,3.42,1.22,1.15.66,2.05,1.56,2.71,2.71s.98,2.43.98,3.86c0,3.35-1.63,5.7-4.88,7.06l6.38,11.71h-8.3l-4.64-10.6h-3.81v10.6h-7.62v-26.78ZM816.75,306.15v7.51h3.35c2.98,0,4.47-1.29,4.47-3.87,0-.89-.22-1.62-.66-2.19-.44-.57-.95-.96-1.54-1.16-.58-.2-1.44-.3-2.58-.3h-3.05Z"/>
      <path class="cls-1" d="M856.06,301.81h7.62v26.78h-7.62v-26.78Z"/>
      <path class="cls-1" d="M894.45,301.81h7.67l9.91,26.78h-7.8l-1.73-5.53h-9.77l-1.7,5.53h-7l10.42-26.78ZM901.07,318.47l-3.5-10.97-3.36,10.97h6.87Z"/>
    </g>
    <rect class="cls-1" x="385.8" y="312.84" width="27" height="4.92" rx="2.46" ry="2.46"/>
    <rect class="cls-1" x="952.5" y="312.84" width="27" height="4.92" rx="2.46" ry="2.46"/>
  </g>
</svg>